<mxfile host="Electron" agent="Mozilla/5.0 (X11; Linux x86_64) AppleWebKit/537.36 (KHTML, like Gecko) draw.io/24.7.17 Chrome/128.0.6613.36 Electron/32.0.1 Safari/537.36" version="24.7.17">
  <diagram name="Page-1" id="RKHVUW2N_d_PKmhu-u5R">
    <mxGraphModel dx="1690" dy="490" grid="1" gridSize="10" guides="1" tooltips="1" connect="1" arrows="1" fold="1" page="1" pageScale="1" pageWidth="850" pageHeight="1100" math="0" shadow="0">
      <root>
        <mxCell id="0" />
        <mxCell id="1" parent="0" />
        <mxCell id="HSbgIvVEJFZNTS4eDVB9-5" value="" style="image;aspect=fixed;perimeter=ellipsePerimeter;html=1;align=center;shadow=0;dashed=0;spacingTop=3;image=img/lib/active_directory/database_server.svg;opacity=80;" vertex="1" parent="1">
          <mxGeometry x="316" y="293.27" width="77.9" height="95" as="geometry" />
        </mxCell>
        <mxCell id="HSbgIvVEJFZNTS4eDVB9-2" value="" style="image;aspect=fixed;perimeter=ellipsePerimeter;html=1;align=center;shadow=0;dashed=0;spacingTop=3;image=img/lib/active_directory/generic_server.svg;opacity=80;" vertex="1" parent="1">
          <mxGeometry x="236" y="40" width="114.95" height="205.27" as="geometry" />
        </mxCell>
        <mxCell id="HSbgIvVEJFZNTS4eDVB9-1" value="" style="image;aspect=fixed;perimeter=ellipsePerimeter;html=1;align=center;shadow=0;dashed=0;spacingTop=3;image=img/lib/active_directory/generic_server.svg;opacity=80;" vertex="1" parent="1">
          <mxGeometry x="-40" y="70" width="59.2" height="105.72" as="geometry" />
        </mxCell>
        <mxCell id="5x6kxyVGrB73tKSnYr17-6" style="edgeStyle=orthogonalEdgeStyle;rounded=0;orthogonalLoop=1;jettySize=auto;html=1;entryX=0;entryY=0.25;entryDx=0;entryDy=0;startArrow=block;startFill=1;endArrow=block;endFill=1;strokeWidth=2;" parent="1" source="5x6kxyVGrB73tKSnYr17-1" target="5x6kxyVGrB73tKSnYr17-3" edge="1">
          <mxGeometry relative="1" as="geometry" />
        </mxCell>
        <mxCell id="5x6kxyVGrB73tKSnYr17-5" value="" style="group" parent="1" vertex="1" connectable="0">
          <mxGeometry x="290" y="100" width="280" height="184.27" as="geometry" />
        </mxCell>
        <mxCell id="5x6kxyVGrB73tKSnYr17-3" value="BACKEND SERVER&lt;div&gt;&lt;i&gt;&lt;font style=&quot;font-size: 10px;&quot;&gt;(NodeJS + ExpressJS + SQLite3 (NPM) + Mongoose (NPM))&lt;/font&gt;&lt;/i&gt;&lt;/div&gt;" style="rounded=0;whiteSpace=wrap;html=1;verticalAlign=top;" parent="5x6kxyVGrB73tKSnYr17-5" vertex="1">
          <mxGeometry width="280" height="120" as="geometry" />
        </mxCell>
        <mxCell id="HSbgIvVEJFZNTS4eDVB9-4" value="" style="image;aspect=fixed;perimeter=ellipsePerimeter;html=1;align=center;shadow=0;dashed=0;spacingTop=3;image=img/lib/active_directory/database.svg;opacity=80;" vertex="1" parent="5x6kxyVGrB73tKSnYr17-5">
          <mxGeometry x="20" y="63" width="50" height="37" as="geometry" />
        </mxCell>
        <mxCell id="5x6kxyVGrB73tKSnYr17-4" value="SQLITE3 ENGINE (NPM)&lt;div&gt;&lt;i&gt;&lt;font style=&quot;font-size: 10px;&quot;&gt;(En memoria)&lt;/font&gt;&lt;/i&gt;&lt;/div&gt;" style="rounded=0;whiteSpace=wrap;html=1;" parent="5x6kxyVGrB73tKSnYr17-5" vertex="1">
          <mxGeometry x="54.00307692307692" y="60" width="161.53846153846152" height="40" as="geometry" />
        </mxCell>
        <mxCell id="5x6kxyVGrB73tKSnYr17-1" value="FRONTEND SERVER&lt;div&gt;&lt;i&gt;&lt;font style=&quot;font-size: 10px;&quot;&gt;(ReactJS empaquetado con Vite servido con NodeJS + ExpressJS)&lt;/font&gt;&lt;/i&gt;&lt;/div&gt;" style="rounded=0;whiteSpace=wrap;html=1;" parent="1" vertex="1">
          <mxGeometry x="-10" y="100" width="190" height="60" as="geometry" />
        </mxCell>
        <mxCell id="5x6kxyVGrB73tKSnYr17-10" value="MongoDB SaaS" style="rounded=0;whiteSpace=wrap;html=1;" parent="1" vertex="1">
          <mxGeometry x="355" y="302.5" width="150" height="60" as="geometry" />
        </mxCell>
        <mxCell id="5x6kxyVGrB73tKSnYr17-11" style="edgeStyle=orthogonalEdgeStyle;rounded=0;orthogonalLoop=1;jettySize=auto;html=1;endArrow=block;endFill=1;startArrow=block;startFill=1;strokeWidth=2;" parent="1" source="5x6kxyVGrB73tKSnYr17-3" target="5x6kxyVGrB73tKSnYr17-10" edge="1">
          <mxGeometry relative="1" as="geometry" />
        </mxCell>
        <mxCell id="HSbgIvVEJFZNTS4eDVB9-7" value="&lt;i&gt;Via Mongoose&lt;/i&gt;" style="edgeLabel;html=1;align=center;verticalAlign=middle;resizable=0;points=[];" vertex="1" connectable="0" parent="5x6kxyVGrB73tKSnYr17-11">
          <mxGeometry x="0.1122" y="2" relative="1" as="geometry">
            <mxPoint x="-2" y="-3" as="offset" />
          </mxGeometry>
        </mxCell>
      </root>
    </mxGraphModel>
  </diagram>
</mxfile>
